# xmcd
#
# Track frame offsets:
#	150
#	43652
#	85444
#	141835
#
# Disc length: 3119 seconds
#
# Revision: 0
# Processed by: cddbd v1.4PL0 Copyright (c) Steve Scherf et al.
# Submitted via: audiograbber 1.81.03
#
DISCID=320c2d04
DTITLE=Mick Taylor - Back At The Village [CD1]
DYEAR=2000
DGENRE=Blues
TTITLE0=Secret Affair
TTITLE1=Twisted Sister
TTITLE2=Late At Night
TTITLE3=Going South
EXTD=
EXTT0=
EXTT1=
EXTT2=
EXTT3=
PLAYORDER=
